<svg xmlns="http://www.w3.org/2000/svg" viewBox="0 0 600 450" width="600" height="450" role="img">
  <defs>
    <radialGradient id="bg" cx="50%" cy="38%" r="72%">
      <stop offset="0%" stop-color="#FFFFFF"/>
      <stop offset="100%" stop-color="#EEF2F8"/>
    </radialGradient>
    <linearGradient id="steel" x1="0" y1="0" x2="0" y2="1">
      <stop offset="0%" stop-color="#E8EDF5"/><stop offset="50%" stop-color="#C3CEDE"/><stop offset="100%" stop-color="#9AA9BF"/>
    </linearGradient>
    <linearGradient id="navy" x1="0" y1="0" x2="0" y2="1">
      <stop offset="0%" stop-color="#2B4A9B"/><stop offset="100%" stop-color="#16255A"/>
    </linearGradient>
    <linearGradient id="red" x1="0" y1="0" x2="0" y2="1">
      <stop offset="0%" stop-color="#E04A45"/><stop offset="100%" stop-color="#A81E1E"/>
    </linearGradient>
    <linearGradient id="amber" x1="0" y1="0" x2="0" y2="1">
      <stop offset="0%" stop-color="#F6C445"/><stop offset="100%" stop-color="#D68A16"/>
    </linearGradient>
    <linearGradient id="glass" x1="0" y1="0" x2="1" y2="1">
      <stop offset="0%" stop-color="#DFF1FB"/><stop offset="100%" stop-color="#A8CFE8"/>
    </linearGradient>
    <linearGradient id="dark" x1="0" y1="0" x2="0" y2="1">
      <stop offset="0%" stop-color="#4A5568"/><stop offset="100%" stop-color="#232B3A"/>
    </linearGradient>
    
  </defs>
  <rect width="600" height="450" fill="url(#bg)"/>
  <ellipse cx="300" cy="392" rx="152" ry="19" fill="#0F172A" opacity="0.10"/>
  
  <g transform="translate(300 228)">
    <g transform="translate(-96 0) rotate(-6)">
      <rect x="-26" y="-160" width="52" height="20" rx="6" fill="url(#steel)" stroke="#7C8AA0" stroke-width="2"/>
      <path d="M-30 -140 h60 l-6 96 h-48 z" fill="#F3F5F9" stroke="#B6C0D0" stroke-width="3"/>
      <g stroke="#C7D0DE" stroke-width="3">
        <line x1="-27" y1="-118" x2="27" y2="-118"/><line x1="-26" y1="-100" x2="26" y2="-100"/><line x1="-25" y1="-82" x2="25" y2="-82"/>
      </g>
      <path d="M-34 -44 h68 v30 h-68 z" fill="url(#steel)" stroke="#7C8AA0" stroke-width="3"/>
      <path d="M-26 -14 h52 v34 h-52 z" fill="#B8C4D4" stroke="#7C8AA0" stroke-width="3"/>
      <rect x="-16" y="20" width="32" height="40" rx="4" fill="url(#steel)" stroke="#7C8AA0" stroke-width="3"/>
      <path d="M16 34 h16 v26" fill="none" stroke="#6F7D93" stroke-width="7" stroke-linecap="round"/>
      <rect x="-5" y="56" width="10" height="20" rx="3" fill="#8E9BB0"/>
    </g>
    <g transform="translate(24 18) rotate(4)">
      <rect x="-26" y="-160" width="52" height="20" rx="6" fill="url(#steel)" stroke="#7C8AA0" stroke-width="2"/>
      <path d="M-30 -140 h60 l-6 96 h-48 z" fill="#F3F5F9" stroke="#B6C0D0" stroke-width="3"/>
      <g stroke="#C7D0DE" stroke-width="3">
        <line x1="-27" y1="-118" x2="27" y2="-118"/><line x1="-26" y1="-100" x2="26" y2="-100"/><line x1="-25" y1="-82" x2="25" y2="-82"/>
      </g>
      <path d="M-34 -44 h68 v30 h-68 z" fill="url(#steel)" stroke="#7C8AA0" stroke-width="3"/>
      <path d="M-26 -14 h52 v34 h-52 z" fill="#B8C4D4" stroke="#7C8AA0" stroke-width="3"/>
      <rect x="-16" y="20" width="32" height="40" rx="4" fill="url(#steel)" stroke="#7C8AA0" stroke-width="3"/>
      <path d="M16 34 h16 v26" fill="none" stroke="#6F7D93" stroke-width="7" stroke-linecap="round"/>
      <rect x="-5" y="56" width="10" height="20" rx="3" fill="#8E9BB0"/>
    </g>
    <g transform="translate(132 4) rotate(11)">
      <rect x="-26" y="-160" width="52" height="20" rx="6" fill="url(#steel)" stroke="#7C8AA0" stroke-width="2"/>
      <path d="M-30 -140 h60 l-6 96 h-48 z" fill="#F3F5F9" stroke="#B6C0D0" stroke-width="3"/>
      <g stroke="#C7D0DE" stroke-width="3">
        <line x1="-27" y1="-118" x2="27" y2="-118"/><line x1="-26" y1="-100" x2="26" y2="-100"/><line x1="-25" y1="-82" x2="25" y2="-82"/>
      </g>
      <path d="M-34 -44 h68 v30 h-68 z" fill="url(#steel)" stroke="#7C8AA0" stroke-width="3"/>
      <path d="M-26 -14 h52 v34 h-52 z" fill="#B8C4D4" stroke="#7C8AA0" stroke-width="3"/>
      <rect x="-16" y="20" width="32" height="40" rx="4" fill="url(#steel)" stroke="#7C8AA0" stroke-width="3"/>
      <path d="M16 34 h16 v26" fill="none" stroke="#6F7D93" stroke-width="7" stroke-linecap="round"/>
      <rect x="-5" y="56" width="10" height="20" rx="3" fill="#8E9BB0"/>
    </g>
  </g>

</svg>
