<svg xmlns="http://www.w3.org/2000/svg" viewBox="0 0 600 450" width="600" height="450" role="img" aria-label="Jump Start &amp; Terminal Clean">
  <defs>
    <linearGradient id="bg" x1="0" y1="0" x2="1" y2="1">
      <stop offset="0%" stop-color="#FFFFFF"/><stop offset="55%" stop-color="#F3F7FD"/><stop offset="100%" stop-color="#E3EBF8"/>
    </linearGradient>
    <linearGradient id="steel" x1="0" y1="0" x2="0" y2="1">
      <stop offset="0%" stop-color="#EDF1F7"/><stop offset="52%" stop-color="#C6D0E0"/><stop offset="100%" stop-color="#9AA9BF"/>
    </linearGradient>
    <linearGradient id="glass" x1="0" y1="0" x2="1" y2="1">
      <stop offset="0%" stop-color="#EAF6FD"/><stop offset="100%" stop-color="#A8CFE8"/>
    </linearGradient>
  </defs>
  <rect width="600" height="450" fill="url(#bg)"/>
  <circle cx="112" cy="80" r="96" fill="#DBEAFE" opacity=".5"/>
  <path d="M0 450 L600 148 L600 450Z" fill="#1E3A8A" opacity=".055"/>
  <path d="M0 450 L432 450 L0 234Z" fill="#1E3A8A" opacity=".05"/>
  <g transform="translate(84 88) scale(2.480)">
    <rect x="22" y="16" width="15" height="14" rx="3" fill="#DC2626"/>
    <rect x="63" y="16" width="15" height="14" rx="3" fill="#94A3B8"/>
    <rect x="10" y="28" width="80" height="56" rx="9" fill="#0F172A"/>
    <rect x="10" y="28" width="80" height="16" rx="9" fill="#1E3A8A"/>
    <path d="M53 46 38 68h11l-4 16 18-22H51z" fill="#F6C445"/>
  </g>
  <g transform="translate(344 214) scale(2.160)">
    <path d="M10 62c22-26 46-26 68 0" fill="none" stroke="#DC2626" stroke-width="9" stroke-linecap="round"/>
    <path d="M10 80c22-26 46-26 68 0" fill="none" stroke="#0F172A" stroke-width="9" stroke-linecap="round"/>
    <path d="M56 10l36 12-36 12v-8l-18 4v-16l18 4z" fill="#94A3B8"/>
  </g>
</svg>
