<svg xmlns="http://www.w3.org/2000/svg" viewBox="0 0 600 450" width="600" height="450" role="img" aria-label="Shock Absorber Replacement">
  <defs>
    <linearGradient id="bg" x1="0" y1="0" x2="1" y2="1">
      <stop offset="0%" stop-color="#FFFFFF"/><stop offset="55%" stop-color="#F3F7FD"/><stop offset="100%" stop-color="#E3EBF8"/>
    </linearGradient>
    <linearGradient id="steel" x1="0" y1="0" x2="0" y2="1">
      <stop offset="0%" stop-color="#EDF1F7"/><stop offset="52%" stop-color="#C6D0E0"/><stop offset="100%" stop-color="#9AA9BF"/>
    </linearGradient>
    <linearGradient id="glass" x1="0" y1="0" x2="1" y2="1">
      <stop offset="0%" stop-color="#EAF6FD"/><stop offset="100%" stop-color="#A8CFE8"/>
    </linearGradient>
  </defs>
  <rect width="600" height="450" fill="url(#bg)"/>
  <circle cx="112" cy="80" r="96" fill="#DBEAFE" opacity=".5"/>
  <path d="M0 450 L600 148 L600 450Z" fill="#1E3A8A" opacity=".055"/>
  <path d="M0 450 L432 450 L0 234Z" fill="#1E3A8A" opacity=".05"/>
  <g transform="translate(118 62) scale(2.500)">
    <rect x="40" y="4" width="20" height="20" rx="9" fill="#94A3B8"/>
    <rect x="43" y="20" width="14" height="20" fill="#CBD5E1"/>
    <path d="M28 40h44l-44 12h44l-44 12h44l-44 12h44" fill="none" stroke="#DC2626" stroke-width="8" stroke-linecap="round" stroke-linejoin="round"/>
    <rect x="40" y="78" width="20" height="20" rx="9" fill="#94A3B8"/>
  </g>
  <g transform="translate(306 130) scale(2.500)">
    <rect x="40" y="4" width="20" height="20" rx="9" fill="#94A3B8"/>
    <rect x="43" y="20" width="14" height="20" fill="#CBD5E1"/>
    <path d="M28 40h44l-44 12h44l-44 12h44l-44 12h44" fill="none" stroke="#DC2626" stroke-width="8" stroke-linecap="round" stroke-linejoin="round"/>
    <rect x="40" y="78" width="20" height="20" rx="9" fill="#94A3B8"/>
  </g>
</svg>
